HIERARCHY
ROOT hip
{
  OFFSET 0 0 0
  CHANNELS 6 Xposition Yposition Zposition Zrotation Yrotation Xrotation
  JOINT abdomen
  {
    OFFSET 0 20.6881 -0.73152
    CHANNELS 3 Zrotation Xrotation Yrotation
    JOINT chest
    {
      OFFSET 0 11.7043 -0.48768
      CHANNELS 3 Zrotation Xrotation Yrotation
      JOINT neck
      {
        OFFSET 0 22.1894 -2.19456
        CHANNELS 3 Zrotation Xrotation Yrotation
        JOINT head
        {
          OFFSET -0.24384 7.07133 1.2192
          CHANNELS 3 Zrotation Xrotation Yrotation
          JOINT leftEye
          {
            OFFSET 4.14528 8.04674 8.04672
            CHANNELS 3 Zrotation Xrotation Yrotation
            End Site
            {
              OFFSET 1 0 0
            }
          }
          JOINT rightEye
          {
            OFFSET -3.6576 8.04674 8.04672
            CHANNELS 3 Zrotation Xrotation Yrotation
            End Site
            {
              OFFSET 1 0 0
            }
          }
        }
      }
      JOINT rCollar
      {
        OFFSET -2.68224 19.2634 -4.8768
        CHANNELS 3 Zrotation Xrotation Yrotation
        JOINT rShldr
        {
          OFFSET -8.77824 -1.95073 1.46304
          CHANNELS 3 Zrotation Xrotation Yrotation
          JOINT rForeArm
          {
            OFFSET -28.1742 -1.7115 0.48768
            CHANNELS 3 Zrotation Xrotation Yrotation
            JOINT rHand
            {
              OFFSET -22.5879 0.773209 7.07136
              CHANNELS 3 Zrotation Xrotation Yrotation
              JOINT rThumb1
              {
                OFFSET -1.2192 -0.487915 3.41376
                CHANNELS 3 Zrotation Xrotation Yrotation
                JOINT rThumb2
                {
                  OFFSET -3.37035 -0.52449 3.41376
                  CHANNELS 3 Zrotation Xrotation Yrotation
                  End Site
                  {
                    OFFSET -1.78271 -1.18214 1.43049
                  }
                }
              }
              JOINT rIndex1
              {
                OFFSET -7.75947 0.938293 5.60832
                CHANNELS 3 Zrotation Xrotation Yrotation
                JOINT rIndex2
                {
                  OFFSET -2.54057 -0.884171 1.56538
                  CHANNELS 3 Zrotation Xrotation Yrotation
                  End Site
                  {
                    OFFSET -1.62519 -0.234802 1.16502
                  }
                }
              }
              JOINT rMid1
              {
                OFFSET -8.24714 1.18213 3.41376
                CHANNELS 3 Zrotation Xrotation Yrotation
                JOINT rMid2
                {
                  OFFSET -3.10165 -0.590103 1.0647
                  CHANNELS 3 Zrotation Xrotation Yrotation
                  End Site
                  {
                    OFFSET -2.48547 -0.328903 0.83742
                  }
                }
              }
              JOINT rRing1
              {
                OFFSET -8.82822 0.546677 1.51678
                CHANNELS 3 Zrotation Xrotation Yrotation
                JOINT rRing2
                {
                  OFFSET -2.60934 -0.819778 -0.0198488
                  CHANNELS 3 Zrotation Xrotation Yrotation
                  End Site
                  {
                    OFFSET -2.33842 -0.294052 0.168128
                  }
                }
              }
              JOINT rPinky1
              {
                OFFSET -8.27202 -0.0477905 -0.4584
                CHANNELS 3 Zrotation Xrotation Yrotation
                JOINT rPinky2
                {
                  OFFSET -1.82734 -0.647385 -0.700984
                  CHANNELS 3 Zrotation Xrotation Yrotation
                  End Site
                  {
                    OFFSET -1.69225 -0.51767 -0.607171
                  }
                }
              }
            }
          }
        }
      }
      JOINT lCollar
      {
        OFFSET 2.68224 19.2634 -4.8768
        CHANNELS 3 Zrotation Xrotation Yrotation
        JOINT lShldr
        {
          OFFSET 8.77824 -1.95073 1.46304
          CHANNELS 3 Zrotation Xrotation Yrotation
          JOINT lForeArm
          {
            OFFSET 28.1742 -1.7115 0.48768
            CHANNELS 3 Zrotation Xrotation Yrotation
            JOINT lHand
            {
              OFFSET 22.5879 0.773209 7.07136
              CHANNELS 3 Zrotation Xrotation Yrotation
              JOINT lThumb1
              {
                OFFSET 1.2192 -0.487915 3.41376
                CHANNELS 3 Zrotation Xrotation Yrotation
                JOINT lThumb2
                {
                  OFFSET 3.37035 -0.52449 3.41376
                  CHANNELS 3 Zrotation Xrotation Yrotation
                  End Site
                  {
                    OFFSET 1.78271 -1.18214 1.43049
                  }
                }
              }
              JOINT lIndex1
              {
                OFFSET 7.75947 0.938293 5.60832
                CHANNELS 3 Zrotation Xrotation Yrotation
                JOINT lIndex2
                {
                  OFFSET 2.54057 -0.884171 1.56538
                  CHANNELS 3 Zrotation Xrotation Yrotation
                  End Site
                  {
                    OFFSET 1.62519 -0.234802 1.16502
                  }
                }
              }
              JOINT lMid1
              {
                OFFSET 8.24714 1.18213 3.41376
                CHANNELS 3 Zrotation Xrotation Yrotation
                JOINT lMid2
                {
                  OFFSET 3.10165 -0.590103 1.0647
                  CHANNELS 3 Zrotation Xrotation Yrotation
                  End Site
                  {
                    OFFSET 2.48547 -0.328903 0.83742
                  }
                }
              }
              JOINT lRing1
              {
                OFFSET 8.82822 0.546677 1.51678
                CHANNELS 3 Zrotation Xrotation Yrotation
                JOINT lRing2
                {
                  OFFSET 2.60934 -0.819778 -0.0198488
                  CHANNELS 3 Zrotation Xrotation Yrotation
                  End Site
                  {
                    OFFSET 2.33842 -0.294052 0.168128
                  }
                }
              }
              JOINT lPinky1
              {
                OFFSET 8.27202 -0.0477905 -0.4584
                CHANNELS 3 Zrotation Xrotation Yrotation
                JOINT lPinky2
                {
                  OFFSET 1.82734 -0.647385 -0.700984
                  CHANNELS 3 Zrotation Xrotation Yrotation
                  End Site
                  {
                    OFFSET 1.69225 -0.51767 -0.607171
                  }
                }
              }
            }
          }
        }
      }
    }
  }
  JOINT rButtock
  {
    OFFSET -8.77824 4.35084 1.2192
    CHANNELS 3 Zrotation Xrotation Yrotation
    JOINT rThigh
    {
      OFFSET 0 -1.70687 -2.19456
      CHANNELS 3 Zrotation Xrotation Yrotation
      JOINT rShin
      {
        OFFSET 0 -36.8199 0.73152
        CHANNELS 3 Zrotation Xrotation Yrotation
        JOINT rFoot
        {
          OFFSET 0.73152 -45.1104 -5.12064
          CHANNELS 3 Zrotation Xrotation Yrotation
          End Site
          {
            OFFSET -1.1221 -3.69964 12.103
          }
        }
      }
    }
  }
  JOINT lButtock
  {
    OFFSET 8.77824 4.35084 1.2192
    CHANNELS 3 Zrotation Xrotation Yrotation
    JOINT lThigh
    {
      OFFSET 0 -1.70687 -2.19456
      CHANNELS 3 Zrotation Xrotation Yrotation
      JOINT lShin
      {
        OFFSET 0 -36.8199 0.73152
        CHANNELS 3 Zrotation Xrotation Yrotation
        JOINT lFoot
        {
          OFFSET -0.73152 -45.1104 -5.12064
          CHANNELS 3 Zrotation Xrotation Yrotation
          End Site
          {
            OFFSET 1.1221 -3.69964 12.103
          }
        }
      }
    }
  }
}
MOTION
Frames:	6
Frame Time:	0.03333
21.343300000000003 60.4654 0.7521 -5.622713 15.18877 17.977551 9.988149 -4.767493 103.835103 -4.248674 -7.027478 -112.963199 -18.011873 -11.477303 -55.875835 0.805765 21.085735 32.596889 2.262109 0.434135 21.725101 -2.34913 0.973564 -45.01705 -131.918114 32.075109 119.926861 -91.851143 69.142178 87.681081 25.762079 -50.873565 -111.519012 -176.71534 45.20671 146.924825 30.40149 8.217342 5.267701 153.796058 -82.426633 127.459362 108.725009 7.318611 82.21254 141.9728 83.764613 52.366625 -169.818424 1.654444 170.238179 -48.906443 74.781246 -21.698233 -87.235717 -10.993225 -62.93352 60.394813 2.494492 33.369186 -70.500062 3.030705 9.119128 84.182585 -27.698488 -1.559383 -2.261907 0.416834 14.175869 -134.360432 -66.888426 -113.142409 -6.246841 -55.15242 133.580416 170.366092 -25.975591 -149.324875 -93.430891 -64.177963 -55.040523 -16.589484 16.509146 15.736025 -15.489178 -29.57466 -9.848586 0.500862 49.513116 12.573773 106.868649 42.199778 -66.520559 -171.370083 -37.288675 -100.758446 90.3173 -73.074484 84.631984 134.305211 -32.77731 148.065283 137.858557 48.713529 113.26014 -32.712375 -22.88722 57.157335 41.930587 -1.497961 18.315023 -79.827632 -36.662573 180.0 -94.626193 -40.6893 98.840279 160.191395 -34.706658 27.096654 -19.81519 33.06176 97.641477 -97.352684 -9.225374 -0.0 69.750296 -22.926317 -2.885295 -58.545874 -55.638251 -153.810764
20.6484 60.534600000000005 1.9688 -6.215155 16.310697 16.299273 11.978506 -1.467321 95.999069 -3.716137 -5.878634 -110.131291 -4.740245 -2.941113 125.487201 -4.61089 -9.001755 -144.99595 -8.563333 -1.459973 19.316461 5.135914 -2.035602 -43.219304 -170.990278 -15.698026 137.374085 -120.199896 85.975111 116.351011 -33.670929 64.648985 127.417677 23.749923 -43.330913 13.07842 44.962794 15.000203 3.623883 -162.095561 1.549285 114.141042 100.965 -5.173274 68.45158 -127.483435 86.10008 -21.473058 -161.363703 -25.984166 -178.819719 -163.5561 -30.138327 -142.730615 87.607413 67.643058 -108.38308 145.369631 10.977048 -148.889872 138.61286 -3.321557 -142.851429 131.924136 57.850678 -179.550342 -6.166412 44.436677 8.135803 121.650203 59.988651 -113.385514 179.820623 -57.741813 79.529647 30.919337 21.903281 -4.727707 163.470066 11.253505 -87.972815 49.924057 -74.957367 57.522778 135.315027 9.291322 -85.734126 -89.645851 -27.668705 -53.585047 -162.194621 -18.291393 -130.955893 96.889458 -82.46428 103.673481 11.603666 0.356695 -6.272351 142.38923 -5.216567 179.68998 -31.996557 -18.483136 25.214155 71.205834 -45.31688 -9.692143 20.277121 -2.015606 -0.0 -59.241333 -53.180844 -64.525473 -119.751307 63.843903 -18.195085 -155.664213 54.280554 -119.722522 -72.013357 -33.331815 0.0 48.907979 -46.301829 57.767487 70.631625 -6.752431 -31.867307 -120.041982 41.437379 26.141231
20.2912 61.2405 3.4278999999999997 -5.920216 15.687894 14.728714 15.566539 3.358092 -78.125382 6.358443 0.484369 62.727571 -10.777346 0.940719 130.587216 -17.09216 -13.582858 -151.728834 -13.833208 -1.413664 11.614229 9.064114 -3.268795 -39.595282 142.991996 -60.302554 118.265879 11.735606 23.436919 -7.001023 178.573072 -82.811181 53.322365 -169.094317 40.069585 141.84623 -52.707269 38.315752 84.394028 -128.823575 -48.353191 138.691923 24.896741 -13.066593 54.130248 -18.320345 26.936298 -105.26765 -120.073016 -57.253769 -142.818169 135.554333 49.12849 -108.940875 136.3343 56.368183 -143.520969 118.291398 28.70849 -100.680687 -108.029982 -51.1873 -25.203464 -147.967294 54.554656 -76.589808 -2.372531 64.286466 -0.156851 -143.994569 -59.456853 -155.161886 132.418542 -76.64986 -82.85194 172.365082 -40.017226 -146.169843 10.9584 4.327644 -11.03626 81.956034 -2.396534 -75.643002 -9.187724 -25.12572 -25.801125 -44.962162 -6.581169 54.4552 -179.05117 -4.536737 -139.337693 91.323109 -46.862863 111.665476 55.236216 -84.742864 75.360059 166.827749 -27.026375 -176.712356 -9.706267 -34.881383 39.991711 46.458879 -77.941762 -31.532985 144.371753 66.718919 37.961429 169.803023 4.107285 -72.981754 -95.545889 12.964704 14.027185 -174.589413 -58.980028 -65.459485 -13.882804 62.294672 106.343622 -121.997343 -5.892971 11.120251 72.311014 -14.458325 -45.900478 -148.90952 7.684103 39.46593
19.9123 62.2981 5.0456 -5.922205 14.418406 12.98655 11.614246 9.428581 -0.0 4.294191 -11.317203 -14.04441 -32.116831 4.347611 -99.423785 1.198326 47.242576 80.074119 -12.823329 -0.197051 1.753395 14.879276 -5.504343 -40.420887 -17.977703 17.369622 30.428055 35.466685 -43.570842 24.976472 -107.202566 -10.69976 82.198271 174.326707 -17.974975 144.169009 15.882236 70.487385 27.542347 -146.534771 -7.555338 114.453074 10.186184 2.13844 41.166538 164.870693 8.147481 -154.591445 3.858806 4.015092 -41.541586 -23.705061 5.298538 112.215202 -30.462952 11.149109 -27.710072 -19.638225 -69.837785 35.954378 -78.598664 -43.749177 -3.779231 -60.801095 -74.099663 -94.611189 98.749444 82.032583 -105.329333 145.098865 -84.270698 126.253991 -5.664293 32.543571 -106.284101 29.848156 18.760268 -0.079624 177.602421 -15.425251 -73.469722 39.167939 -30.827753 11.60787 88.048956 12.903271 -60.335107 -174.678082 -18.241744 -35.951992 11.131594 -5.412587 8.725446 160.503163 -15.73127 -63.900977 79.202483 -74.651825 113.735571 131.908838 47.731986 -144.29182 -44.892155 7.4999 8.599445 163.704167 -32.333782 65.662557 1.713567 6.980767 -13.828524 -34.954822 -72.731368 -180.0 -85.33325 -53.219095 113.295835 53.896634 -41.8378 -19.34537 -17.559322 11.719058 57.304645 -60.532109 -54.584032 -55.930837 62.915765 67.537473 178.124353 -82.517177 83.770759 174.819324
19.3576 63.3872 6.7453 -5.808166 11.87117 11.605117 8.555611 7.090996 -180.0 -4.581756 8.809715 168.449457 -24.794892 -4.226134 7.609174 40.243313 -9.092077 -27.900571 -10.028772 0.564585 -6.427929 20.818848 -8.985737 -46.316013 0.707585 -0.885705 18.640918 25.510682 -27.086981 19.474289 166.223924 -17.490653 67.064954 -135.190587 61.309605 111.417905 87.635489 76.373451 -59.741692 -135.314433 -3.452015 75.202211 3.541538 15.665917 30.283098 174.224628 20.870924 -164.76005 -4.208112 -20.323739 -54.302021 166.968023 -49.364748 -15.016563 -80.829507 -41.993306 -73.859462 -87.454767 1.203346 95.362139 -106.941399 70.021645 100.028753 -10.683815 33.052712 -28.406312 99.960869 77.645287 -104.010925 24.130012 12.465924 1.13398 152.856781 72.249453 -15.00122 169.757027 -30.201173 -144.43454 -5.657936 3.003936 -16.863657 -13.445403 -2.276418 5.151868 -11.364921 -15.982548 -27.544433 -104.708402 65.136944 57.898933 9.834635 37.469899 7.325695 167.590593 22.335579 -59.998688 127.63424 -4.706344 165.173052 131.926685 -17.443111 162.459381 -83.015664 63.390488 18.89377 -51.952575 1.689141 66.741668 66.630915 17.898773 27.26375 -117.430489 -27.134709 -180.0 -96.493315 -42.327023 -62.045452 122.85749 -23.648865 -154.174633 12.923823 71.522005 83.267638 -122.837595 -13.653969 -44.88011 73.58494 49.998762 7.927833 -29.036144 24.516836 -79.872103
18.5503 63.98160000000001 8.5133 -5.561058 8.49994 10.768115 4.789487 11.728104 -0.779903 5.401674 -13.846521 -6.824545 -33.972832 11.124872 -83.430786 32.805361 46.29636 49.301831 -8.304809 0.860038 -11.804492 21.762169 -11.53525 -55.439185 -79.438815 55.504161 87.326716 30.633026 -74.413186 34.02884 43.283877 -20.953826 80.145022 -1.485179 -20.292093 -4.828165 24.92124 -44.473746 -79.711165 -12.575363 31.074743 1.225494 83.862821 -63.594598 15.930528 55.871633 -65.069179 82.747921 -116.649111 -37.589719 -153.677775 3.332958 12.365927 168.450821 -163.059118 8.641973 -152.201477 103.323179 24.843479 -22.038963 -162.698497 20.097429 -172.605193 -131.08029 58.178669 -107.468713 157.731358 -2.397697 -166.480943 -18.590621 12.892682 23.326579 -18.405723 8.121241 145.305803 165.10934 -3.796398 -138.251457 -62.939902 -27.640144 -20.28811 94.90529 48.1453 -70.162688 151.360557 -18.617771 -90.288788 170.551384 63.287425 -66.242549 38.450852 -74.680295 68.896817 75.710026 -67.87898 -176.907072 -25.368305 41.634615 16.722378 97.015985 57.686324 -80.861932 144.980103 42.546924 123.588871 80.125332 -1.91813 137.930782 74.39433 24.249803 29.346369 -121.726636 -20.644515 -48.580823 18.291044 79.935959 65.944942 -123.08119 -60.771198 144.89821 -68.355551 -11.587705 -0.0 80.945662 -48.136132 78.919609 86.252763 18.467235 74.55958 -73.8712 4.210815 -166.429721
